<?xml version="1.0" standalone="no"?>
<!DOCTYPE svg PUBLIC "-//W3C//DTD SVG 20010904//EN"
 "http://www.w3.org/TR/2001/REC-SVG-20010904/DTD/svg10.dtd">
<svg version="1.0" xmlns="http://www.w3.org/2000/svg"
 width="120.000000pt" height="120.000000pt" viewBox="0 0 120.000000 120.000000"
 preserveAspectRatio="xMidYMid meet">
<metadata>
Created by potrace 1.11, written by Peter Selinger 2001-2013
</metadata>
<g transform="translate(0.000000,120.000000) scale(0.100000,-0.100000)"
fill="#000000" stroke="none">
<path d="M197 1189 c-11 -6 -26 -27 -35 -48 -14 -30 -22 -36 -51 -38 -35 -2
-47 -12 -57 -51 -12 -44 32 -104 69 -94 4 1 7 -7 7 -18 0 -13 -7 -20 -18 -20
-22 0 -62 -35 -62 -54 0 -16 28 -42 57 -50 24 -8 33 -25 28 -52 -2 -11 -4 -31
-4 -46 -1 -15 -7 -33 -15 -40 -28 -29 -54 -92 -46 -114 10 -26 50 -37 83 -25
24 9 26 7 42 -42 23 -73 56 -126 113 -183 57 -58 70 -66 140 -99 47 -22 53
-28 50 -52 -3 -24 -8 -28 -42 -29 -46 -3 -60 -15 -51 -43 5 -18 20 -25 46 -23
3 1 3 -12 1 -28 -6 -44 20 -49 84 -14 30 16 56 35 59 42 3 8 -6 33 -20 57
l-26 43 94 0 c86 0 94 -1 90 -17 -3 -10 -12 -18 -21 -18 -54 0 -71 -5 -77 -20
-7 -19 30 -57 46 -47 5 3 6 -8 3 -24 -9 -45 23 -50 87 -15 58 31 68 47 49 77
-44 70 -45 69 13 91 82 32 116 53 168 106 91 92 129 196 130 354 0 121 -60
324 -93 313 -6 -2 -29 -33 -50 -69 -72 -118 -156 -169 -273 -164 -102 5 -132
28 -213 165 -38 65 -47 87 -37 95 55 45 23 145 -46 145 -17 0 -38 -7 -47 -16
-15 -16 -17 -15 -28 13 -7 16 -19 35 -27 41 -20 17 -99 25 -120 11z"/>
</g>
</svg>
